P1
#Created by MazeUTFSM ELO329
229 197
0000000000000000000000000000000000000000000000000000000000000000000000000000000000000000000000000000000000000000000000000000000000000000000000000000000000000000000000000000000000000000000000000000000000000000000000000000000000000
0001111111111111111111111111111111111111111111111111111111111111111111111111111111111111111111111111111111111111111111111111111111111111111111111111111111111111111111111111111111111111111111111111111111111111111111111111111111000
0111111111111111111111111111111111111111111111111111111111111111111111111111111111111111111111111111111111111111111111111111111111111111111111111111111111111111111111111111111111111111111111111111111111111111111111111111111111110
0111111111111111111111111111111111111111111111111111111111111111111111111111111111111111111111111111111111111111111111111111111111111111111111111111111111111111111111111111111111111111111111111111111111111111111111111111111111110
0111000000000000000000000000000000000000000000000000000000000000000000000000000000000000000000000000000000000000000000000000000001110000000000000000000000000000000000000000000000000000000000000000000000000000000000000000000001110
0111000000000000000000000000000000000000000000000000000000000000000000000000000000000000000000000000000000000000000000000000000001110000000000000000000000000000000000000000000000000000000000000000000000000000000000000000000001110
0111000000000000000000000000000000000000000000000000000000000000000000000000000000000000000000000000000000000000000000000000000001110000000000000000000000000000000000000000000000000000000000000000000000000000000000000000000001110
0111000000000000000000000000000000000000000000000000000000000000000000000000000000000000000000000000000000000000000000000000000001110000000000000000000000000000000000000000000000000000000000000000000000000000000000000000000001110
0111000000000000000000000000000000000000000000000000000000000000000000000000000000000000000000000000000000000000000000000000000001110000000000000000000000000000000000000000000000000000000000000000000000000000000000000000000001110
0111000000000000000000000000000000000000000000000000000000000000000000000000000000000000000000000000000000000000000000000000000001110000000000000000000000000000000000000000000000000000000000000000000000000000000000000000000001110
0111011111111111111111111111111111111111111111111111111111111111111111111111111111111111111111111111111111111111111111111110000001111111111111111111111111111111111111111111111111111111111111111111111111111111111111111110000001110
0111010000000000000000000000000000000000000000000000000000000000000000000000000000000000000000000000000000000000000000000010000001111000000000000000000000000000000000000000000000000000000000000000000000000000000000000010000001110
0111010000000000000000000000000000000000000000000000000000000000000000000000000000000000000000000000000000000000000000000010000001111000000000000000000000000000000000000000000000000000000000000000000000000000000000000010000001110
0111010000000000000000000000000000000000000000000000000000000000000000000000000000000000000000000000000000000000000000000010000001111000000000000000000000000000000000000000000000000000000000000000000000000000000000000010000001110
0111010000000000000000000000000000000000000000000000000000000000000000000000000000000000000000000000000000000000000000000010000001111000000000000000000000000000000000000000000000000000000000000000000000000000000000000010000001110
0111010000000000000000000000000000000000000000000000000000000000000000000000000000000000000000000000000000000000000000000010000001111000000000000000000000000000000000000000000000000000000000000000000000000000000000000010000001110
0111010000000000000000000000000000000000000000000000000000000000000000000000000000000000000000000000000000000000000000000010000001111000000000000000000000000000000000000000000000000000000000000000000000000000000000000010000001110
0111010000000000000000000000000000000000000000000000000000000000000000000000000000000000000000000000000000000000000000000010000001111000000000000000000000000000000000000000000000000000000000000000000000000000000000000010000001110
0111010000000000000000000000000000000000000000000000000000000000000000000000000000000000000000000000000000000000000000000010000001111000000000000000000000000000000000000000000000000000000000000000000000000000000000000010000001110
0111010000000000000000000000000000000000000000000000000000000000000000000000000000000000000000000000000000000000000000000010000001111000000000000000000000000000000000000000000000000000000000000000000000000000000000000010000001110
0111010000000000000000000000000000000000000000000000000000000000000000000000000000000000000000000000000000000000000000000010000001111000000000000000000000000000000000000000000000000000000000000000000000000000000000000010000001110
0111010000000000000000000000000000000000000000000000000000000000000000000000000000000000000000000000000000000000000000000010000001111000000000000000000000000000000000000000000000000000000000000000000000000000000000000010000001110
0111010000000000000000000000000000000000000000000000000000000000000000000000000000000000000000000000000000000000000000000010000001111000000000000000000000000000000000000000000000000000000000000000000000000000000000000010000001110
0111010000000000000000000000000000000000000000000000000000000000000000000000000000000000000000000000000000000000000000000010000001111000000000000000000000000000000000000000000000000000000000000000000000000000000000000010000001110
0111010000000000000000000000000000000000000000000000000000000000000000000000000000000000000000000000000000000000000000000010000001111000000000000000000000000000000000000000000000000000000000000000000000000000000000000010000001110
0111010000000000000000000000000000000000000000000000000000000000000000000000000000000000000000000000000000000000000000000010000001111000000000000000000000000000000000000000000000000000000000000000000000000000000000000010000001110
0111010000000000000000000000000000000000000000000000000000000000000000000000000000000000000000000000000000000000000000000010000001111000000000000000000000000000000000000000000000000000000000000011111111111111111111111110000001110
0111010000000000000000000000000000000000000000000000000000000000000000000000000000000000000000000000000000000000000000000010000001111000000000000000000000000000000000000000000000000000000000000110000000000000000000000000000001110
0111010000000000000000000000000000000000000000000000000000000000000000000000000000000000000000000000000000000000000000000010000001111000000000000000000000000000000000000000000000000000000000000100000000000000000000000000000001110
0111010000000000000000000000000000000000000000000000000000000000000000000000000000000000000000000000000000000000000000000010000001111000000000000000000000000000000000000000000000000000000000000100000000000000000000000000000001110
0111010000000000000000000000000000000000000000000000000000000000000000000000000000000000000000000000000000000000000000000010000001111000000000000000000000000000000000000000000000000000000000000100000000000000000000000000000001110
0111010000000000000000000000000000000000000000000000000000000000000000000000000000000000000000000000000000000000000000000010000001111000000000000000000000000000000000000000000000000000000000000100000000000000000000000000000001110
0111010000000000000000000000000000000000000000000000000000000000000000000000000000000000000000000000000000000000000000000010000001111000000000000000000000000000000000000000000000000000000000000100000000000000000000000000000001110
0111010000000000000000000000000000011111111111111111111111111111110000000000000000000000000000001111111111000000000000000010000001111000000000000000000000000000000000000000000000000000000000000101111111111111111111111111111111110
0010010000000000000000000000000000111111111111111111111111111111111100000000000000000000000000001010000001100000000000000010000001111000000000000000000000000000001000000000000000000000000000000111111111111111111111111111111111110
0000010000000000000000000000000000011111111111111111111111111111111100000000000000000000000000001111000000100000000000000010000001111000000000000000000000000000011100000000000000000000000000000101111111111111111111111111111111110
0000010000000000000000000000000000000000000000000000000000000000011100000000000000000000000000001111000000100000000000000010000001111000000000000000000000000000011100000000000000000000000000000111111111111111111111111110000001110
0000010000000000000000000000000000000000000000000000000000000000011100000000000000000000000000001111000000100000000000000010000001111000000000000000000000000000011100000000000000000000000000000000000000000000000000000010000001110
0000010000000000000000000000000000000000000000000000000000000000011100000000000000000000000000001111000000100000000000000010000001111000000000000000000000000000011100000000000000000000000000000000000000000000000000000010000001110
0000010000000000000000000000000000000000000000000000000000000000011100000000000000000000000000001111000000100000000000000010000001111000000000000000000000000000011100000000000000000000000000000000000000000000000000000010000001110
0000010000000000000000000000000000000000000000000000000000000000011100000000000000000000000000001111000000100000000000000010000001111000000000000000000000000000011100000000000000000000000000000000000000000000000000000010000001110
0000010000000000000000000000000000000000000000000000000000000000011100000000000000000000000000001111000000100000000000000010000001111000000000000000000000000000011100000000000000000000000000000000000000000000000000000010000001110
0000010000000000000000000000000000000000000000000000000000000000011100000000000000000000000000001111000000100000000000000010000001111000000000000000000000000000011100000000000000000000000000000000000000000000000000000010000001110
0000010000000000000000000000000000000000000000000000000000000000011100000000000000000000000000001111000000100000000000000010000001111000000000000000000000000000011100000000000000000000000000000000000000000000000000000010000001110
0000010000000000000000000000000000000000000000000000000000000000011100000000000000000000000000001111000000100000000000000010000001111000000000000000000000000000011100000000000000000000000000000000000000000000000000000010000001110
0000010000000000000000000000000000000000000000000000000000000000011100000000000000000000000000001111000000100000000000000010000001111000000000000000000000000000011100000000000000000000000000000000000000000000000000000010000001110
0000010000000000000000000000000000000000000000000000000000000000011100000000000000000000000000001111000000100000000000000010000001111000000000000000000000000000011100000000000000000000000000000000000000000000000000000010000001110
0000010000000000000000000000000000000000000000000000000000000000011100000000000000000000000000001111000000100000000000000010000001111000000000000000000000000000011100000000000000000000000000000000000000000000000000000010000001110
0000010000000000000000000000000000000000000000000000000000000000011100000000000000000000000000001111000000100000000000000010000001111000000000000000000000000000011100000000000000000000000000000000000000000000000000000010000001110
0000010000000000000000000000000000000000000000000000000000000000011100000000000000000000000000001111000000100000000000000010000001111000000000000000000000000000011100000000000000000000000000000000000000000000000000000010000001110
0000010000000000000000000000000000000000000000000000000000000000011100000000000000000000000000001111000000100000000000000010000001111000000000000000000000000000011100000000000000000000000000000000000000000000000000000010000001110
0000010000000000000000000000000000000000000000000000000000000000011100000000000000000000000000001111000000100000000000000010000001111000000000000000000000000000011100000000000000000000000000000000000000000000000000000010000001110
0000010000000000000000000000000000000000000000000000000000000000011100000000000000000000000000001111000000100000000000000010000001111000000000000000000000000000011100000000000000000000000000000000000000000000000000000010000001110
0000010000000000000000000000000000000000000000000000000000000000011100000000000000000000000000001111000000100000000000000010000001111000000000000000000000000000011100000000000000000000000000000000000000000000000000000010000001110
0000010000000000000000000000000000000000000000000000000000000000011100000000000000000000000000001111000000100000000000000010000001111000000000000000000000000000011100000000000000000000000000000000000000000000000000000010000001110
0000010000000000000000000000000000000000000000000000000000000000011100000000000000000000000000001111000000100000000000000010000001111000000000000000000000000000011100000000000000000000000000000000000000000000000000000010000001110
0000010000000000000000000000000000000000000000000000000000000000011100000000000000000000000000001111000000100000000000000010000001111000000000000000000000000000011100000000000000000000000000000000000000000000000000000010000001110
0000010000000000000000000000000000000000000000000000000000000000011100000000000000000000000000001111000000100000000000000010000001111000000000000000000000000000011100000000000000000000000000000000000000000000000000000010000001110
0000011111111111111000000000000000000000000000000000000000000000011100000000000000000000000000001111000000111111111111111110000001111000000000000000000000000000011100000000000000000000000000000000000000000000000000000010000001110
0000000000000000000000000000000000000000000000000000000000000000011100000000000000000000000000001111000000000000000000000000000001111000000000000000000000000000011100000000000000000000000000000000000000000000000000000010000001110
0000000000000000000000000000000000000000000000000000000000000000011100000000000000000000000000001111000000000000000000000000000001111000000000000000000000000000011100000000000000000000000000000000000000000000000000000010000001110
0000000000000000000000000000000000000000000000000000000000000000011100000000000000000000000000001111000000000000000000000000000001111000000000000000000000000000011100000000000000000000000000000000000000000000000000000010000001110
0000000000000000000000000000000000000000000000000000000000000000011100000000000000000000000000001111000000000000000000000000000001111000000000000000000000000000011100000000000000000000000000000000000000000000000000000010000001110
0000000000000000000000000000000000000000000000000000000000000000011100000000000000000000000000001111000000000000000000000000000001111000000000000000000000000000011100000000000000000000000000000000000000000000000000000010000001110
0000000000000000000000000000000000000000000000000000000000000000011100000000000000000000000000001111000000000000000000000000000001111000000000000000000000000000011100000000000000000000000000000000000000000000000000000010000001110
0001111111111111111111111111111111111111111111111111111111111111111100000000000000000000000000001111111111111111111111111111111111111000000000000000000000000000011111111111111111111111111111111100000000000000000000000010000001110
0111111111111111111111111111111111111111111111111111111111111111111000000000000000000000000000001011111111111111111111111111111111101000000000000000000000000000011111111111111111111111111111111110000000000000000000000010000001110
0111111111111111111111111111111111111111111111111111111111111111111000000000000000000000000000001001111111111111111111111111111111101000000000000000000000000000011111111111111111111111111111111100000000000000000000000010000001110
0111000000000000000000000000000000000000000000000000000000000000000000000000000000000000000000001111111111111111111111111111111111111000000000000000000000000000011100000000000000000000000000000000000000000000000000000010000001110
0111000000000000000000000000000000000000000000000000000000000000000000000000000000000000000000000000000000000000000000000000000000000000000000000000000000000000011100000000000000000000000000000000000000000000000000000010000001110
0111000000000000000000000000000000000000000000000000000000000000000000000000000000000000000000000000000000000000000000000000000000000000000000000000000000000000011100000000000000000000000000000000000000000000000000000010000001110
0111000000000000000000000000000000000000000000000000000000000000000000000000000000000000000000000000000000000000000000000000000000000000000000000000000000000000011100000000000000000000000000000000000000000000000000000010000001110
0111000000000000000000000000000000000000000000000000000000000000000000000000000000000000000000000000000000000000000000000000000000000000000000000000000000000000011100000000000000000000000000000000000000000000000000000010000001110
0111000000000000000000000000000000000000000000000000000000000000000000000000000000000000000000000000000000000000000000000000000000000000000000000000000000000000011100000000000000000000000000000000000000000000000000000010000001110
0111000000000000000000000000000000000000000000000000000000000000000000000000000000000000000000000000000000000000000000000000000000000000000000000000000000000000011100000000000000000000000000000000000000000000000000000010000001110
0111000000000000000000000000000000000000000000000000000000000000000000000000000000000000000000000000000000000000000000000000000000000000000000000000000000000000011100000000000000000000000000000000000000000000000000000010000001110
0111000000000000000000000000000000000000000000000000000000000000000000000000000000000000000000000000000000000000000000000000000000000000000000000000000000000000011100000000000000000000000000000000000000000000000000000010000001110
0111000000000000000000000000000000000000000000000000000000000000000000000000000000000000000000000000000000000000000000000000000000000000000000000000000000000000011100000000000000000000000000000000000000000000000000000010000001110
0111000000000000000000000000000000000000000000000000000000000000000000000000000000000000000000000000000000000000000000000000000000000000000000000000000000000000011100000000000000000000000000000000000000000000000000000010000001110
0111000000000000000000000000000000000000000000000000000000000000000000000000000000000000000000000000000000000000000000000000000000000000000000000000000000000000011100000000000000000000000000000000000000000000000000000010000001110
0111000000000000000000000000000000000000000000000000000000000000000000000000000000000000000000000000000000000000000000000000000000000000000000000000000000000000011100000000000000000000000000000000000000000000000000000010000001110
0111000000000000000000000000000000000000000000000000000000000000000000000000000000000000000000000000000000000000000000000000000000000000000000000000000000000000011100000000000000000000000000000000000000000000000000000010000001110
0111000000000000000000000000000000000000000000000000000000000000000000000000000000000000000000000000000000000000000000000000000000000000000000000000000000000000011100000000000000000000000000000000000000000000000000000010000001110
0111000000000000000000000000000000000000000000000000000000000000000000000000000000000000000000000000000000000000000000000000000000000000000000000000000000000000011100000000000000000000000000000000000000000000000000000010000001110
0111000000000000000000000000000000000000000000000000000000000000000000000000000000000000000000000000000000000000000000000000000000000000000000000000000000000000011100000000000000000000000000000000000000000000000000000010000001110
0111000000000000000000000000000000000000000000000000000000000000000000000000000000000000000000000000000000000000000000000000000000000000000000000000000000000000011100000000000000000000000000000000000000000000000000000010000001110
0111000000000000000000000000000000000000000000000000000000000000000000000000000000000000000000000000000000000000000000000000000000000000000000000000000000000000011100000000000000000000000000000000000000000000000000000010000001110
0111000000000000000000000000000000000000000000000000000000000000000000000000000000000000000000000000000000000000000000000000000000000000000000000000000000000000011100000000000000000000000000000000000000000000000000000010000001110
0111000000000000000000000000000000000000000000000000000000000000000000000000000000000000000000000000000000000000000000000000000000000000000000000000000000000000011100000000000000000000000000000000000000000000000000000010000001110
0111000000000000000000000000000000000000000000000000000000000000000000000000000000000000000000000000000000000000000000000000000000000000000000000000000000000000011100000000000000000000000000000000000000000000000000000010000001110
0111000000000000000000000000000000000000000000000000000000000000000000000000000000000000000000000000000000000000000000000000000000000000000000000000000000000000011100000000000000000000000000000011111111111111111111111110000001110
0111000000000000000000000000000000000000000000000000000000000000000000000000000000000000000000000000000000000000000000000000000000000000000000000000000000000000011100000000000000000000000000000110000000000000000000000000000001110
0111000000000000000000000000000000000000000000000000000000000000000000000000000000000000000000000000000000000000000000000000000000000000000000000000000000000000011100000000000000000000000000000100000000000000000000000000000001110
0111000000000000000000000000000000000000000000000000000000000000000000000000000000000000000000000000000000000000000000000000000000000000000000000000000000000000011100000000000000000000000000000100000000000000000000000000000001110
0111000000000000000000000000000000000000000000000000000000000000000000000000000000000000000000000000000000000000000000000000000000000000000000000000000000000000011100000000000000000000000000000100000000000000000000000000000001110
0111000000000000000000000000000000000000000000000000000000000000000000000000000000000000000000000000000000000000000000000000000000000000000000000000000000000000011100000000000000000000000000000100000000000000000000000000000001110
0111000000000000000000000000000000000000000000000000000000000000000000000000000000000000000000000000000000000000000000000000000000000000000000000000000000000000011100000000000000000000000000000100000000000000000000000000000001110
0111000000000000000000000000000000000000000000000000000000000000000000000000000000000000000000000001111111111111111111111111111111000000000000000000000000000000011100000000000000000000000000000101111111111111111111111111111111110
0111000000000000000000000000000000100000000000000000000000000000001000000000000000000000000000000011111111111111111111111111111111110000000000000000000000000000011100000000000000000000000000000111111111111111111111111111111111110
0111000000000000000000000000000001110000000000000000000000000000011100000000000000000000000000000001111111111111111111111111111111110000000000000000000000000000011100000000000000000000000000000101111111111111111111111111111111110
0111000000000000000000000000000001110000000000000000000000000000011100000000000000000000000000000000000000000000000000000000000001110000000000000000000000000000011100000000000000000000000000000111111111111111111111111110000001110
0111000000000000000000000000000001110000000000000000000000000000011100000000000000000000000000000000000000000000000000000000000001110000000000000000000000000000011100000000000000000000000000000000000000000000000000000010000001110
0111000000000000000000000000000001110000000000000000000000000000011100000000000000000000000000000000000000000000000000000000000001110000000000000000000000000000011100000000000000000000000000000000000000000000000000000010000001110
0111000000000000000000000000000001110000000000000000000000000000011100000000000000000000000000000000000000000000000000000000000001110000000000000000000000000000011100000000000000000000000000000000000000000000000000000010000001110
0111000000000000000000000000000001110000000000000000000000000000011100000000000000000000000000000000000000000000000000000000000001110000000000000000000000000000011100000000000000000000000000000000000000000000000000000010000001110
0111000000000000000000000000000001110000000000000000000000000000011100000000000000000000000000000000000000000000000000000000000001110000000000000000000000000000011100000000000000000000000000000000000000000000000000000010000001110
0111000000000000000000000000000001110000000000000000000000000000011100000000000000000000000000000000000000000000000000000000000001110000000000000000000000000000011100000000000000000000000000000000000000000000000000000010000001110
0111000000000000000000000000000001110000000000000000000000000000011100000000000000000000000000000000000000000000000000000000000001110000000000000000000000000000011100000000000000000000000000000000000000000000000000000010000001110
0111000000000000000000000000000001110000000000000000000000000000011100000000000000000000000000000000000000000000000000000000000001110000000000000000000000000000011100000000000000000000000000000000000000000000000000000010000001110
0111000000000000000000000000000001110000000000000000000000000000011100000000000000000000000000000000000000000000000000000000000001110000000000000000000000000000011100000000000000000000000000000000000000000000000000000010000001110
0111000000000000000000000000000001110000000000000000000000000000011100000000000000000000000000000000000000000000000000000000000001110000000000000000000000000000011100000000000000000000000000000000000000000000000000000010000001110
0111000000000000000000000000000001110000000000000000000000000000011100000000000000000000000000000000000000000000000000000000000001110000000000000000000000000000011100000000000000000000000000000000000000000000000000000010000001110
0111000000000000000000000000000001110000000000000000000000000000011100000000000000000000000000000000000000000000000000000000000001110000000000000000000000000000011100000000000000000000000000000000000000000000000000000010000001110
0111000000000000000000000000000001110000000000000000000000000000011100000000000000000000000000000000000000000000000000000000000001110000000000000000000000000000011100000000000000000000000000000000000000000000000000000010000001110
0111000000000000000000000000000001110000000000000000000000000000011100000000000000000000000000000000000000000000000000000000000001110000000000000000000000000000011100000000000000000000000000000000000000000000000000000010000001110
0111000000000000000000000000000001110000000000000000000000000000011100000000000000000000000000000000000000000000000000000000000001110000000000000000000000000000011100000000000000000000000000000000000000000000000000000010000001110
0111000000000000000000000000000001110000000000000000000000000000011100000000000000000000000000000000000000000000000000000000000001110000000000000000000000000000011100000000000000000000000000000000000000000000000000000010000001110
0111000000000000000000000000000001110000000000000000000000000000011100000000000000000000000000000000000000000000000000000000000001110000000000000000000000000000011100000000000000000000000000000000000000000000000000000010000001110
0111000000000000000000000000000001110000000000000000000000000000011100000000000000000000000000000000000000000000000000000000000001110000000000000000000000000000011100000000000000000000000000000000000000000000000000000010000001110
0111000000000000000000000000000001110000000000000000000000000000011100000000000000000000000000000000000000000000000000000000000001110000000000000000000000000000011100000000000000000000000000000000000000000000000000000010000001110
0111000000000000000000000000000001110000000000000000000000000000011100000000000000000000000000000000000000000000000000000000000001110000000000000000000000000000011100000000000000000000000000000000000000000000000000000010000001110
0111000000000000000000000000000001110000000000000000000000000000011100000000000000000000000000000000000000000000000000000000000001110000000000000000000000000000011100000000000000000000000000000000000000000000000000000010000001110
0111000000000000000000000000000001110000000000000000000000000000011100000000000000000000000000000000000000000000000000000000000001110000000000000000000000000000011100000000000000000000000000000000000000000000000000000010000001110
0111000000000000000000000000000001110000000000000000000000000000011100000000000000000000000000000000000000000000000000000000000001110000000000000000000000000000011100000000000000000000000000000000000000000000000000000010000001110
0111000000000000000000000000000001110000000000000000000000000000011100000000000000000000000000000000000000000000000000000000000001110000000000000000000000000000011100000000000000000000000000000000000000000000000000000010000001110
0111000000000000000000000000000001110000000000000000000000000000011100000000000000000000000000000000000000000000000000000000000001110000000000000000000000000000011100000000000000000000000000000000000000000000000000000010000001110
0111000000000000000000000000000001110000000000000000000000000000011100000000000000000000000000000000000000000000000000000000000001110000000000000000000000000000011100000000000000000000000000000000000000000000000000000010000001110
0111000000000000000000000000000001110000000000000000000000000000011100000000000000000000000000000000000000000000000000000000000001110000000000000000000000000000011100000000000000000000000000000000000000000000000000000010000001110
0111000000000000000000000000000001110000000000000000000000000000011100000000000000000000000000000000000000000000000000000000000001110000000000000000000000000000011100000000000000000000000000000000000000000000000000000010000001110
0111000000000000000000000000000001110000000000000000000000000000011111111111111111111111111111111100000000000000000000000000000001110000000000000000000000000000011111111111111111111111111111111100000000000000000000000010000001110
0111000000000000000000000000000001110000000000000000000000000000001111111111111111111111111111111111000000000000000000000000000001110000000000000000000000000000011111111111111111111111111111111111000000000000000000000010000001110
0111000000000000000000000000000001110000000000000000000000000000000111111111111111111111111111111111000000000000000000000000000001110000000000000000000000000000011111111111111111111111111111111111000000000000000000000010000001110
0111000000000000000000000000000001110000000000000000000000000000000000000000000000000000000000000111000000000000000000000000000001110000000000000000000000000000011100000000000000000000000000000111000000000000000000000010000001110
0111000000000000000000000000000001110000000000000000000000000000000000000000000000000000000000000111000000000000000000000000000001110000000000000000000000000000011100000000000000000000000000000111000000000000000000000010000001110
0111000000000000000000000000000001110000000000000000000000000000000000000000000000000000000000000111000000000000000000000000000001110000000000000000000000000000011100000000000000000000000000000111000000000000000000000010000001110
0111000000000000000000000000000001110000000000000000000000000000000000000000000000000000000000000111000000000000000000000000000001110000000000000000000000000000011100000000000000000000000000000111000000000000000000000010000001110
0111000000000000000000000000000001110000000000000000000000000000000000000000000000000000000000000111000000000000000000000000000001110000000000000000000000000000011100000000000000000000000000000111000000000000000000000010000001110
0111000000000000000000000000000001110000000000000000000000000000000000000000000000000000000000000111000000000000000000000000000001110000000000000000000000000000011100000000000000000000000000000111000000000000000000000010000001110
0111000000000000000000000000000001110000000000000000000000000000000000000000000000000000000000000111000000000000000000000000000001110000000000000000000000000000011100000000000000000000000000000111000000000000000000000010000001110
0111000000000000000000000000000001110000000000000000000000000000000000000000000000000000000000000111000000000000000000000000000001110000000000000000000000000000011100000000000000000000000000000111000000000000000000000010000001110
0111000000000000000000000000000001110000000000000000000000000000000000000000000000000000000000000111000000000000000000000000000001110000000000000000000000000000011100000000000000000000000000000111000000000000000000000010000001110
0111000000000000000000000000000001110000000000000000000000000000000000000000000000000000000000000111000000000000000000000000000001110000000000000000000000000000011100000000000000000000000000000111000000000000000000000010000001110
0111000000000000000000000000000001110000000000000000000000000000000000000000000000000000000000000111000000000000000000000000000001110000000000000000000000000000011100000000000000000000000000000111000000000000000000000010000001110
0111000000000000000000000000000001110000000000000000000000000000000000000000000000000000000000000111000000000000000000000000000001110000000000000000000000000000011100000000000000000000000000000111000000000000000000000010000001110
0111000000000000000000000000000001110000000000000000000000000000000000000000000000000000000000000111000000000000000000000000000001110000000000000000000000000000011100000000000000000000000000000111000000000000000000000010000001110
0111000000000000000000000000000001110000000000000000000000000000000000000000000000000000000000000111000000000000000000000000000001110000000000000000000000000000011100000000000000000000000000000111000000000000000000000010000001110
0111000000000000000000000000000001110000000000000000000000000000000000000000000000000000000000000111000000000000000000000000000001110000000000000000000000000000011100000000000000000000000000000111000000000000000000000010000001110
0111000000000000000000000000000001110000000000000000000000000000000000000000000000000000000000000111000000000000000000000000000001110000000000000000000000000000011100000000000000000000000000000111000000000000000000000010000001110
0111000000000000000000000000000001110000000000000000000000000000000000000000000000000000000000000111000000000000000000000000000001110000000000000000000000000000011100000000000000000000000000000111000000000000000000000010000001110
0111000000000000000000000000000001110000000000000000000000000000000000000000000000000000000000000111000000000000000000000000000001110000000000000000000000000000011100000000000000000000000000000111000000000000000000000010000001110
0111000000000000000000000000000001110000000000000000000000000000000000000000000000000000000000000111000000000000000000000000000001110000000000000000000000000000011100000000000000000000000000000111000000000000000000000010000001110
0111000000000000000000000000000001110000000000000000000000000000000000000000000000000000000000000111000000000000000000000000000001110000000000000000000000000000011100000000000000000000000000000111000000000000000000000010000001110
0111000000000000000000000000000001110000000000000000000000000000000000000000000000000000000000000111000000000000000000000000000001110000000000000000000000000000011100000000000000000000000000000111000000000000000000000010000001110
0111000000000000000000000000000001110000000000000000000000000000000000000000000000000000000000000111000000000000000000000000000001110000000000000000000000000000011100000000000000000000000000000111000000000000000000000010000001110
0111000000000000000000000000000001110000000000000000000000000000000000000000000000000000000000000111000000000000000000000000000001110000000000000000000000000000011100000000000000000000000000000111000000000000000000000010000001110
0111000000000000000000000000000001110000000000000000000000000000000000000000000000000000000000000111000000000000000000000000000001110000000000000000000000000000011100000000000000000000000000000111000000000000000000000010000001110
0111000000000000000000000000000001110000000000000000000000000000000000000000000000000000000000000111000000000000000000000000000001110000000000000000000000000000011100000000000000000000000000000111000000000000000000000010000001110
0111000000000000000000000000000001110000000000000000000000000000000000000000000000000000000000000111000000000000000000000000000001110000000000000000000000000000011100000000000000000000000000000111000000000000000000000010000001110
0111000000000000000000000000000001110000000000000000000000000000000000000000000000000000000000000111000000000000000000000000000001110000000000000000000000000000011100000000000000000000000000000111000000000000000000000010000001110
0111000000000000000000000000000001110000000000000000000000000000000000000000000000000000000000000111000000000000000000000000000001110000000000000000000000000000011100000000000000000000000000000111000000000000000000000010000001110
0111000000000000000000000000000001110000000000000000000000000000000000000000000000000000000000000111000000000000000000000000000001110000000000000000000000000000011100000000000000000000000000000111000000000000000000000010000001110
0111000000000000000000000000000001111111111111111111111111111111110000000000000000000000000000000111111111111111111111111111111111110000000000000000000000000000011100000000000000000000000000000111000000000000000000000010000001110
0111000000000000000000000000000000111111111111111111111111111111111100000000000000000000000000000011111111111111111111111111111111110000000000000000000000000000001000000000000000000000000000000111000000000000000000000011000000100
0111000000000000000000000000000000011111111111111111111111111111111100000000000000000000000000000001111111111111111111111111111111110000000000000000000000000000000000000000000000000000000000000111000000000000000000000001111000000
0111000000000000000000000000000000000000000000000000000000000000011100000000000000000000000000000000000000000000000000000000000001110000000000000000000000000000000000000000000000000000000000000111000000000000000000000000001000000
0111000000000000000000000000000000000000000000000000000000000000011100000000000000000000000000000000000000000000000000000000000001110000000000000000000000000000000000000000000000000000000000000111000000000000000000000000001000000
0111000000000000000000000000000000000000000000000000000000000000011100000000000000000000000000000000000000000000000000000000000001110000000000000000000000000000000000000000000000000000000000000111000000000000000000000000001000000
0111000000000000000000000000000000000000000000000000000000000000011100000000000000000000000000000000000000000000000000000000000001110000000000000000000000000000000000000000000000000000000000000111000000000000000000000000001000000
0111000000000000000000000000000000000000000000000000000000000000011100000000000000000000000000000000000000000000000000000000000001110000000000000000000000000000000000000000000000000000000000000111000000000000000000000000001000000
0111000000000000000000000000000000000000000000000000000000000000011100000000000000000000000000000000000000000000000000000000000001110000000000000000000000000000000000000000000000000000000000000111000000000000000000000000001000000
0111000000000000000000000000000000000000000000000000000000000000011100000000000000000000000000000000000000000000000000000000000001110000000000000000000000000000000000000000000000000000000000000111000000000000000000000000001000000
0111000000000000000000000000000000000000000000000000000000000000011100000000000000000000000000000000000000000000000000000000000001110000000000000000000000000000000000000000000000000000000000000111000000000000000000000000001000000
0111000000000000000000000000000000000000000000000000000000000000011100000000000000000000000000000000000000000000000000000000000001110000000000000000000000000000000000000000000000000000000000000111000000000000000000000000001000000
0111000000000000000000000000000000000000000000000000000000000000011100000000000000000000000000000000000000000000000000000000000001110000000000000000000000000000000000000000000000000000000000000111000000000000000000000000001000000
0111000000000000000000000000000000000000000000000000000000000000011100000000000000000000000000000000000000000000000000000000000001110000000000000000000000000000000000000000000000000000000000000111000000000000000000000000001000000
0111000000000000000000000000000000000000000000000000000000000000011100000000000000000000000000000000000000000000000000000000000001110000000000000000000000000000000000000000000000000000000000000111000000000000000000000000001000000
0111000000000000000000000000000000000000000000000000000000000000011100000000000000000000000000000000000000000000000000000000000001110000000000000000000000000000000000000000000000000000000000000111000000000000000000000000001000000
0111000000000000000000000000000000000000000000000000000000000000011100000000000000000000000000000000000000000000000000000000000001110000000000000000000000000000000000000000000000000000000000000111000000000000000000000000001000000
0111000000000000000000000000000000000000000000000000000000000000011100000000000000000000000000000000000000000000000000000000000001110000000000000000000000000000000000000000000000000000000000000111000000000000000000000000001000000
0111000000000000000000000000000000000000000000000000000000000000011100000000000000000000000000000000000000000000000000000000000001110000000000000000000000000000000000000000000000000000000000000111000000000000000000000000001000000
0111000000000000000000000000000000000000000000000000000000000000011100000000000000000000000000000000000000000000000000000000000001110000000000000000000000000000000000000000000000000000000000000111000000000000000000000000001000000
0111000000000000000000000000000000000000000000000000000000000000011100000000000000000000000000000000000000000000000000000000000001110000000000000000000000000000000000000000000000000000000000000111000000000000000000000000001000000
0111000000000000000000000000000000000000000000000000000000000000011100000000000000000000000000000000000000000000000000000000000001110000000000000000000000000000000000000000000000000000000000000111000000000000000000000000001000000
0111000000000000000000000000000000000000000000000000000000000000011100000000000000000000000000000000000000000000000000000000000001110000000000000000000000000000000000000000000000000000000000000111000000000000000000000000001000000
0111000000000000000000000000000000000000000000000000000000000000011100000000000000000000000000000000000000000000000000000000000001110000000000000000000000000000000000000000000000000000000000000111000000000000000000000000001000000
0111000000000000000000000000000000000000000000000000000000000000011100000000000000000000000000000000000000000000000000000000000001110000000000000000000000000000000000000000000000000000000000000111000000000000000000000000001000000
0111000000000000000000000000000000000000000000000000000000000000011100000000000000000000000000000000000000000000000000000000000001110000000000000000000000000000000000000000000000000000000000000111000000000000000000001111111000000
0111000000000000000000000000000000000000000000000000000000000000011100000000000000000000000000000000000000000000000000000000000001110000000000000000000000000000000000000000000000000000000000000111000000000000000000000000000000000
0111000000000000000000000000000000000000000000000000000000000000011100000000000000000000000000000000000000000000000000000000000001110000000000000000000000000000000000000000000000000000000000000111000000000000000000000000000000000
0111000000000000000000000000000000000000000000000000000000000000011100000000000000000000000000000000000000000000000000000000000001110000000000000000000000000000000000000000000000000000000000000111000000000000000000000000000000000
0111000000000000000000000000000000000000000000000000000000000000011100000000000000000000000000000000000000000000000000000000000001110000000000000000000000000000000000000000000000000000000000000111000000000000000000000000000000000
0111000000000000000000000000000000000000000000000000000000000000011100000000000000000000000000000000000000000000000000000000000001110000000000000000000000000000000000000000000000000000000000000111000000000000000000000000000000000
0111000000000000000000000000000000000000000000000000000000000000011100000000000000000000000000000000000000000000000000000000000001110000000000000000000000000000000000000000000000000000000000000111000000000000000000000000000000000
0111111111111111111111111111111111111111111111111111111111111111111111111111111111111111111111111111111111111111111111111111111111111111111111111111111111111111111111111111111111111111111111111111111111111111111111111111111111000
0011111111111111111111111111111111111111111111111111111111111111111111111111111111111111111111111111111111111111111111111111111111111111111111111111111111111111111111111111111111111111111111111111111111111111111111111111111111100
0001111111111111111111111111111111111111111111111111111111111111111111111111111111111111111111111111111111111111111111111111111111111111111111111111111111111111111111111111111111111111111111111111111111111111111111111111111111000
0000000000000000000000000000000000000000000000000000000000000000000000000000000000000000000000000000000000000000000000000000000000000000000000000000000000000000000000000000000000000000000000000000000000000000000000000000000000000
